{"accessors":[{"bufferView":2,"componentType":5126,"count":2995,"max":[2.4178099632263184,2.4178099632263184,4.813330173492432],"min":[-2.4178099632263184,-2.4178099632263184,-4.518089771270752],"type":"VEC3","byteOffset":0},{"bufferView":2,"byteOffset":35940,"componentType":5126,"count":2995,"max":[0.9987998008728027,0.9987998008728027,1],"min":[-0.9987998008728027,-0.9987998008728027,-1],"type":"VEC3"},{"bufferView":3,"componentType":5126,"count":2995,"max":[1,0.9999960660934448,0.9973993301391602,1],"min":[-1,-0.9999960660934448,-0.9979244470596313,1],"type":"VEC4","byteOffset":0},{"bufferView":1,"componentType":5126,"count":2995,"max":[0.9970399737358093,0.9838299751281738],"min":[0.0009599999757483602,0.002580000087618828],"type":"VEC2","byteOffset":0},{"bufferView":0,"componentType":5125,"count":8682,"max":[2994],"min":[0],"type":"SCALAR","byteOffset":0}],"asset":{"extras":{"author":"Robukan (https://sketchfab.com/robukan)","license":"CC-BY-NC-ND-4.0 (http://creativecommons.org/licenses/by-nc-nd/4.0/)","source":"https://sketchfab.com/models/6a35d2c1bfe143e4b7e27a9e5324a905","title":"French Coke can"},"generator":"Sketchfab-3.20.7","version":"2.0"},"bufferViews":[{"buffer":0,"byteLength":34728,"byteOffset":0,"name":"floatBufferViews","target":34963},{"buffer":0,"byteLength":23960,"byteOffset":34728,"byteStride":8,"name":"floatBufferViews","target":34962},{"buffer":0,"byteLength":71880,"byteOffset":58688,"byteStride":12,"name":"floatBufferViews","target":34962},{"buffer":0,"byteLength":47920,"byteOffset":130568,"byteStride":16,"name":"floatBufferViews","target":34962},{"buffer":0,"byteOffset":178488,"byteLength":796130}],"buffers":[{"byteLength":974620,"uri":"data:application/octet-stream;base64,"}],"images":[{"bufferView":4,"mimeType":"image/png"}],"materials":[{"doubleSided":true,"name":"CanMat","pbrMetallicRoughness":{"baseColorFactor":[0.8000000119,0.8000000119,0.8000000119,1],"baseColorTexture":{"index":0,"texCoord":0},"metallicFactor":0,"roughnessFactor":0.6},"emissiveFactor":[0,0,0],"alphaMode":"OPAQUE"}],"meshes":[{"name":"Cylinder.001_0","primitives":[{"attributes":{"NORMAL":1,"POSITION":0,"TANGENT":2,"TEXCOORD_0":3},"indices":4,"material":0,"mode":4}]}],"nodes":[{"children":[1],"name":"RootNode (gltf orientation matrix)","rotation":[-0.7071067811865475,0,0,0.7071067811865476],"translation":[0,0,0],"scale":[1,1,1]},{"children":[2],"name":"RootNode (model correction matrix)"},{"children":[3,5,7,9,11,13,15],"name":"Root"},{"children":[4],"matrix":[-0.29086000000000006,0.9551700000000001,-0.05519000000000001,0,-0.7711,-0.19988000000000003,0.6045200000000001,0,0.5663900000000001,0.21839000000000003,0.7946700000000001,0,4.076250000000001,1.00545,5.903860000000001,1],"name":"Lamp"},{"name":"Lamp"},{"children":[6],"matrix":[0.35368000000000005,0,0,0,0,0.35368000000000005,0,0,0,0,0.35368000000000005,0,0,0,1.91044,1],"name":"Cylinder.001"},{"mesh":0,"name":"Cylinder.001_0"},{"children":[8],"matrix":[-0.29086000000000006,0.9551700000000001,-0.05519000000000001,0,-0.7711,-0.19988000000000003,0.6045200000000001,0,0.5663900000000001,0.21839000000000003,0.7946700000000001,0,4.076250000000001,1.00545,5.903860000000001,1],"name":"Lamp.001"},{"name":"Lamp.001"},{"children":[10],"matrix":[-0.29086000000000006,0.9551700000000001,-0.05519000000000001,0,-0.7711,-0.19988000000000003,0.6045200000000001,0,0.5663900000000001,0.21839000000000003,0.7946700000000001,0,-7.9547099999999995,1.00545,5.903860000000001,1],"name":"Lamp.002"},{"name":"Lamp.002"},{"children":[12],"matrix":[-0.29086000000000006,0.9551700000000001,-0.05519000000000001,0,-0.7711,-0.19988000000000003,0.6045200000000001,0,0.5663900000000001,0.21839000000000003,0.7946700000000001,0,-1.99603,-7.917260000000001,5.903860000000001,1],"name":"Lamp.003"},{"name":"Lamp.003"},{"children":[14],"matrix":[-0.29086000000000006,0.9551700000000001,-0.05519000000000001,0,-0.7711,-0.19988000000000003,0.6045200000000001,0,0.5663900000000001,0.21839000000000003,0.7946700000000001,0,-1.99603,6.9039,5.903860000000001,1],"name":"Lamp.004"},{"name":"Lamp.004"},{"children":[16],"matrix":[-0.29086000000000006,0.9551700000000001,-0.05519000000000001,0,-0.7711,-0.19988000000000003,0.6045200000000001,0,0.5663900000000001,0.21839000000000003,0.7946700000000001,0,0.06411000000000001,-0.044100000000000014,-4.9451,1],"name":"Lamp.005"},{"name":"Lamp.005"}],"samplers":[{"magFilter":9729,"minFilter":9987,"wrapS":10497,"wrapT":10497}],"scene":0,"scenes":[{"name":"OSG_Scene","nodes":[0]}],"textures":[{"sampler":0,"source":0}]}
